<?xml version="1.0" encoding="utf-8"?>
<!-- Generator: Adobe Illustrator 24.1.2, SVG Export Plug-In . SVG Version: 6.00 Build 0)  -->
<svg version="1.1" id="Слой_1" xmlns="http://www.w3.org/2000/svg" xmlns:xlink="http://www.w3.org/1999/xlink" x="0px" y="0px"
	 viewBox="0 0 1080 1080" style="enable-background:new 0 0 1080 1080;" xml:space="preserve">
<style type="text/css">
	.st0{fill:#42DAA9;}
</style>
<g>
	<g>
		<path class="st0" d="M402.6,1004c-207.2,0-375.8-172.1-375.8-383.6c0-206.9,348.2-568,363-583.3L402.6,24l12.7,13.1
			c10.8,11.2,266.2,275.8,342,481.6L724,531C660.3,357.8,455.8,132.2,402.6,75.3C339.3,143,62.3,449,62.3,620.4
			c0,191.9,152.6,348.1,340.3,348.1c70.7,0,138.5-22,195.9-63.5l20.8,28.8C555.8,979.7,480.8,1004,402.6,1004z"/>
	</g>
	<g>
		<path class="st0" d="M393.9,858.3c-158.3,0-230.3-119.4-230.3-230.3h35.5c0,93.8,61,194.8,194.8,194.8V858.3z"/>
	</g>
	<g>
		<g>
			<path class="st0" d="M936.5,1056c-64.3,0-116.6-52.3-116.6-116.6s52.3-116.6,116.6-116.6s116.6,52.3,116.6,116.6
				S1000.8,1056,936.5,1056z M936.5,858.3c-44.7,0-81.1,36.4-81.1,81.1s36.4,81.1,81.1,81.1c44.7,0,81.1-36.4,81.1-81.1
				S981.3,858.3,936.5,858.3z"/>
		</g>
		<g>
			
				<rect x="558.2" y="815.2" transform="matrix(0.5139 -0.8578 0.8578 0.5139 -326.8511 1089.099)" class="st0" width="478.8" height="35.5"/>
		</g>
		<g>
			<path class="st0" d="M658.6,836.9c-64.3,0-116.6-52.3-116.6-116.6s52.3-116.6,116.6-116.6s116.6,52.3,116.6,116.6
				S722.9,836.9,658.6,836.9z M658.6,639.1c-44.7,0-81.1,36.4-81.1,81.1s36.4,81.1,81.1,81.1s81.1-36.4,81.1-81.1
				S703.4,639.1,658.6,639.1z"/>
		</g>
	</g>
</g>
</svg>
