<?xml version="1.0" encoding="utf-8"?>
<!-- Generator: Adobe Illustrator 26.1.0, SVG Export Plug-In . SVG Version: 6.00 Build 0)  -->
<svg version="1.1" id="Слой_1" xmlns="http://www.w3.org/2000/svg" xmlns:xlink="http://www.w3.org/1999/xlink" x="0px" y="0px"
	 viewBox="0 0 1080 1080" style="enable-background:new 0 0 1080 1080;" xml:space="preserve">
<style type="text/css">
	.st0{fill:#42DAA9;}
</style>
<g>
	<g>
		<path class="st0" d="M1039.4,540c0,275.4-224,499.4-499.4,499.4S40.6,815.4,40.6,540h28c0,260,211.5,471.4,471.4,471.4
			c259.9,0,471.4-211.5,471.4-471.4H1039.4z"/>
	</g>
	<g>
		<path class="st0" d="M1039.4,540c0,199-224,360.8-499.4,360.8S40.6,739,40.6,540h28c0,183.6,211.5,332.9,471.4,332.9
			c259.9,0,471.4-149.3,471.4-332.9H1039.4z"/>
	</g>
	<g>
		<path class="st0" d="M1039.4,526v14c0,116.3-219.3,207.4-499.4,207.4S40.6,656.3,40.6,540v-14H1039.4z M70.1,554
			C89.5,645,296.8,719.4,540,719.4S990.5,645,1009.9,554H70.1z"/>
	</g>
	<g>
		<path class="st0" d="M1039.4,540h-28c0-259.9-211.5-471.4-471.4-471.4c-260,0-471.4,211.5-471.4,471.4h-28
			c0-275.4,224-499.4,499.4-499.4S1039.4,264.6,1039.4,540z"/>
	</g>
	<g>
		<path class="st0" d="M1039.4,540h-28c0-183.6-211.5-332.9-471.4-332.9c-260,0-471.4,149.3-471.4,332.9h-28
			c0-199,224-360.8,499.4-360.8S1039.4,341,1039.4,540z"/>
	</g>
	<g>
		<path class="st0" d="M1039.4,540h-28c0-97.2-215.9-179.4-471.4-179.4S68.6,442.8,68.6,540h-28C40.6,423.7,260,332.6,540,332.6
			S1039.4,423.7,1039.4,540z"/>
	</g>
</g>
</svg>
