<?xml version="1.0" encoding="utf-8"?>
<!-- Generator: Adobe Illustrator 26.1.0, SVG Export Plug-In . SVG Version: 6.00 Build 0)  -->
<svg version="1.1" id="Слой_1" xmlns="http://www.w3.org/2000/svg" xmlns:xlink="http://www.w3.org/1999/xlink" x="0px" y="0px"
	 viewBox="0 0 1080 1080" style="enable-background:new 0 0 1080 1080;" xml:space="preserve">
<style type="text/css">
	.st0{fill:#42DAA9;}
</style>
<g>
	<g>
		<path class="st0" d="M540,1039.4c-275.4,0-499.4-224-499.4-499.4S264.6,40.6,540,40.6v28c-260,0-471.4,211.5-471.4,471.4
			c0,259.9,211.5,471.4,471.4,471.4V1039.4z"/>
	</g>
	<g>
		<path class="st0" d="M540,1039.4c-199,0-360.8-224-360.8-499.4S341,40.6,540,40.6v28c-183.6,0-332.9,211.5-332.9,471.4
			c0,259.9,149.3,471.4,332.9,471.4V1039.4z"/>
	</g>
	<g>
		<path class="st0" d="M554,1039.4h-14c-116.3,0-207.4-219.3-207.4-499.4S423.7,40.6,540,40.6h14V1039.4z M526,70.1
			C435,89.5,360.6,296.8,360.6,540S435,990.5,526,1009.9V70.1z"/>
	</g>
	<g>
		<path class="st0" d="M540,1039.4v-28c259.9,0,471.4-211.5,471.4-471.4c0-260-211.5-471.4-471.4-471.4v-28
			c275.4,0,499.4,224,499.4,499.4S815.4,1039.4,540,1039.4z"/>
	</g>
	<g>
		<path class="st0" d="M540,1039.4v-28c183.6,0,332.9-211.5,332.9-471.4c0-260-149.3-471.4-332.9-471.4v-28
			c199,0,360.8,224,360.8,499.4S739,1039.4,540,1039.4z"/>
	</g>
	<g>
		<path class="st0" d="M540,1039.4v-28c97.2,0,179.4-215.9,179.4-471.4S637.2,68.6,540,68.6v-28C656.3,40.6,747.4,260,747.4,540
			S656.3,1039.4,540,1039.4z"/>
	</g>
</g>
</svg>
