<?xml version="1.0" encoding="utf-8"?>
<!-- Generator: Adobe Illustrator 26.1.0, SVG Export Plug-In . SVG Version: 6.00 Build 0)  -->
<svg version="1.1" id="Слой_1" xmlns="http://www.w3.org/2000/svg" xmlns:xlink="http://www.w3.org/1999/xlink" x="0px" y="0px"
	 viewBox="0 0 1080 1080" style="enable-background:new 0 0 1080 1080;" xml:space="preserve">
<style type="text/css">
	.st0{fill:#212624;}
</style>
<g>
	<g>
		<path class="st0" d="M598.4,892.9c-105.4,0-210.8-40.1-291-120.3C147,612.1,147,351,307.4,190.6c160.5-160.4,421.5-160.5,582,0
			s160.5,421.5,0,582C809.2,852.8,703.8,892.9,598.4,892.9z M598.4,143.6c-86.6,0-173.2,33-239.1,98.9
			c-131.8,131.8-131.8,346.4,0,478.2s346.3,131.8,478.2,0c131.8-131.8,131.8-346.4,0-478.2C771.6,176.6,685,143.6,598.4,143.6z"/>
	</g>
	<g>
		
			<rect x="47.1" y="828.5" transform="matrix(0.7071 -0.7071 0.7071 0.7071 -548.8707 405.28)" class="st0" width="335.4" height="73.4"/>
	</g>
</g>
</svg>
