<?xml version="1.0" encoding="utf-8"?>
<!-- Generator: Adobe Illustrator 24.1.2, SVG Export Plug-In . SVG Version: 6.00 Build 0)  -->
<svg version="1.1" id="Слой_1" xmlns="http://www.w3.org/2000/svg" xmlns:xlink="http://www.w3.org/1999/xlink" x="0px" y="0px"
	 viewBox="0 0 1080 1080" style="enable-background:new 0 0 1080 1080;" xml:space="preserve">
<style type="text/css">
	.st0{fill:#42DAA9;}
</style>
<g>
	<g>
		<path class="st0" d="M545.8,821.3c-4,0-7.9,0-11.9,0c-209.7,0-440.8-143.5-518.3-274l-4.3-7.2l4.3-7.2
			c78.3-131.8,312.8-276.2,524.7-274c210.8-3.3,446,142.2,524.3,274l4.3,7.2l-4.3,7.2C986.9,677.8,755.9,821.3,545.8,821.3z
			 M539.8,792.9c1.8,0,3.6,0,5.4,0c191.6,0,412.6-131.2,490.5-253c-78.6-122.9-302.1-255.3-495.5-252.9
			c-192.5-3.9-417.3,130-495.9,252.9c77.8,121.8,298.9,253,490.1,253C536.2,793,538,793,539.8,792.9z"/>
	</g>
	<g>
		<path class="st0" d="M540,727.7c-103.5,0-187.7-84.2-187.7-187.7S436.5,352.3,540,352.3S727.7,436.5,727.7,540
			S643.5,727.7,540,727.7z M540,380.6c-87.9,0-159.5,71.5-159.5,159.5S452.1,699.5,540,699.5S699.4,627.9,699.4,540
			S627.9,380.6,540,380.6z"/>
	</g>
</g>
</svg>
