<?xml version="1.0" encoding="utf-8"?>
<!-- Generator: Adobe Illustrator 26.1.0, SVG Export Plug-In . SVG Version: 6.00 Build 0)  -->
<svg version="1.1" id="Слой_1" xmlns="http://www.w3.org/2000/svg" xmlns:xlink="http://www.w3.org/1999/xlink" x="0px" y="0px"
	 viewBox="0 0 1080 1080" style="enable-background:new 0 0 1080 1080;" xml:space="preserve">
<style type="text/css">
	.st0{fill:#42DAA9;}
</style>
<g>
	<g>
		<path class="st0" d="M551.7,448.2h-535v-28.5h535c67.8,0,122.9-55.2,122.9-122.9v-13.7c0-67.8-55.1-122.9-122.9-122.9
			s-122.9,55.2-122.9,122.9v74.5h-28.5v-74.5c0-83.5,67.9-151.4,151.4-151.4s151.4,67.9,151.4,151.4v13.7
			C703.2,380.3,635.2,448.2,551.7,448.2z"/>
	</g>
	<g>
		<path class="st0" d="M911.9,554.3H16.7v-28.5h895.2c67.8,0,122.9-55.2,122.9-122.9v-13.7c0-67.8-55.1-122.9-122.9-122.9
			S789,321.5,789,389.2v74.5h-28.5v-74.5c0-83.5,67.9-151.4,151.4-151.4s151.4,67.9,151.4,151.4v13.7
			C1063.3,486.3,995.4,554.3,911.9,554.3z"/>
	</g>
	<g>
		<path class="st0" d="M551.7,948.4c-83.5,0-151.4-67.9-151.4-151.4v-74.5h28.5V797c0,67.8,55.2,122.9,122.9,122.9
			c67.8,0,122.9-55.1,122.9-122.9v-13.7c0-67.8-55.1-122.9-122.9-122.9h-535v-28.5h535c83.5,0,151.4,67.9,151.4,151.4V797
			C703.2,880.4,635.2,948.4,551.7,948.4z"/>
	</g>
</g>
</svg>
