<?xml version="1.0" encoding="utf-8"?>
<!-- Generator: Adobe Illustrator 26.1.0, SVG Export Plug-In . SVG Version: 6.00 Build 0)  -->
<svg version="1.1" id="Слой_1" xmlns="http://www.w3.org/2000/svg" xmlns:xlink="http://www.w3.org/1999/xlink" x="0px" y="0px"
	 viewBox="0 0 1080 554.7" style="enable-background:new 0 0 1080 554.7;" xml:space="preserve">
<style type="text/css">
	.st0{fill:#4BE2B3;}
</style>
<g>
	<path class="st0" d="M116.3,306.2c-5.7,4.3-50.4,11.1-64.3,23.6S31.2,350.6,31.8,356c0,0.2,0,0.5,0.1,0.7
		c0.7,8.4-1.3,16.9-5.4,24.2c-6.1,10.8-15.1,28.6-15.1,38.8c3.7,2.3,32.7-35.6,38.4-36.1c5.7-0.6,23.6,10.2,38.4,9.7
		c14.8-0.6,47.8-3.1,79.4,2.6s42.1,7.1,51.5,6.8c0,0-4.6,7.7,8,15.4c12.5,7.7,23.1,21.6,23.1,27.3c0,0,4.4-7.7,1.1-14.8
		c0,0,14.5,22.5,36,25.3c0,0-6-7.3-7.4-10.2c0,0,11.7,2.3,23.2,15.8c0,0-2.7-12-8.5-20.2c0,0,73.7,78.1,138.6,93.2
		c41.8,8,57.2-3.4,57.2-3.4s-69.7,25-176.4-88.5c0,0,13.7,11.1,23.5,13c0,0-19.4-14.3-23.9-23.1c0,0,10,6.2,16.4,6.2
		c0,0-18.8-13.9-22.6-19.2c0,0,9,5.1,13,5.1c0,0-9.6-15.2-33.1-24.5c0,0,0.2-18.4-7.7-22.4c0,0,12.2-9,10.9-22
		c0,0-5.1,16.2-25.4,12.8c0,0-17.1-19.2-51.9-29.9c0,0,76.4,6.4,69.8-41.2s-32.1-67.9-32.1-67.9s20.1,3.2,22.9-8.1
		c0,0,21.1,0.9,21.1-10.9c0,0,47.4-4.7,21.1-15.2c0,0,57.4-15.4,25.2-18.6c0,0,52.7-20.5,16.9-20.7c0,0,23.7-7.9,30.7-20.7
		c0,0-17.3-0.2-30.9,2.3c0,0,42.3-14.3,49.7-33.3c0,0-42,9-51,13.4c0,0,55.1-32.2,60.6-48.5c0,0-28,7.5-38.6,13.9
		c0,0,31.6-26.3,34.8-49.1c0,0-32.9,34.1-53.8,42c0,0,36.3-32.4,38.2-58.9c0,0-38.7,53.8-109.3,85.2c0,0,41-36.7,39.1-69.4
		c0,0-36.3,71.1-102.7,94.1s-84.5,32.2-85.8,58.3s15.6,49.7,4.1,80C131.6,295.9,121.4,302.5,116.3,306.2z"/>
	<g>
		<path class="st0" d="M426.8,355.6v14.8c7.4-11.3,17-16.9,28.6-16.9c9.5,0,17.7,3.8,24.6,11.4s10.3,16.7,10.3,27.2
			c0,10.7-3.5,19.9-10.4,27.6c-7,7.7-15.2,11.6-24.6,11.6c-5.5,0-10.7-1.4-15.7-4.3s-9.2-7-12.4-12.4v49.2h-15.5V355.6H426.8z
			 M474,392.1c0-6.5-2.4-12.2-7.3-17c-4.9-4.9-10.6-7.3-17.2-7.3c-6.7,0-12.5,2.4-17.4,7.2c-4.9,4.8-7.4,10.5-7.4,17.1
			c0,6.7,2.4,12.6,7.3,17.5c4.8,4.9,10.6,7.4,17.2,7.4c6.8,0,12.7-2.4,17.6-7.3C471.6,404.8,474,399,474,392.1z"/>
		<path class="st0" d="M506.9,313.3h15.5v54.3c4.3-4.9,8.3-8.5,12-10.8c3.7-2.2,8.3-3.4,13.6-3.4c6.3,0,11.7,2.4,16.2,7.2
			c4.6,4.8,6.8,10.5,6.8,17.2v51.4h-15.5v-47c0-4.6-1.2-8.4-3.5-11.2c-2.4-2.8-5.5-4.2-9.3-4.2c-5.6,0-10.4,2.1-14.3,6.3
			c-4,4.2-5.9,9.4-5.9,15.4v40.7H507V313.3H506.9z"/>
		<path class="st0" d="M652.6,355.6h15.5v73.7h-15.5v-14.7c-7.6,11.1-16.9,16.7-28.1,16.7c-9.7,0-18-3.8-24.9-11.4
			s-10.3-16.9-10.3-27.8c0-10.3,3.5-19.3,10.4-27s15.1-11.6,24.4-11.6c5.8,0,11.3,1.6,16.4,4.7c5.2,3.2,9.2,7.3,12.1,12.3
			L652.6,355.6L652.6,355.6z M654.7,392.6c0-6.7-2.4-12.5-7.3-17.3c-4.8-4.8-10.6-7.2-17.4-7.2c-6.6,0-12.3,2.4-17.2,7.1
			c-4.9,4.8-7.3,10.4-7.3,16.8c0,7,2.4,12.9,7.2,17.8s10.6,7.3,17.4,7.3c6.7,0,12.5-2.4,17.4-7.3
			C652.3,405.1,654.7,399.3,654.7,392.6z"/>
		<path class="st0" d="M765.1,395.4h-62.9c1.4,7.6,4.5,13.1,9.3,16.6c4.9,3.5,10.1,5.2,15.9,5.2c8.8,0,16.2-3.7,22.2-11l11.3,8.6
			c-8.5,11-19.9,16.5-34.2,16.5c-11,0-20.1-3.8-27.5-11.3s-11.1-16.8-11.1-28c0-10.4,3.7-19.5,11.2-27.1
			c7.5-7.7,16.6-11.5,27.4-11.5c10.6,0,19.7,3.9,27.3,11.7C761.5,372.9,765.2,383,765.1,395.4z M703.8,383h45
			c-5-10.1-12.4-15.2-22.2-15.2C716,367.8,708.3,372.9,703.8,383z"/>
		<path class="st0" d="M787.9,334.1h15.5v21.4h15.4v14.2h-15.4v59.5h-15.5v-59.5h-12.2v-14.4h12.2V334.1z"/>
		<path class="st0" d="M829.1,313.3h15.5v54.3c4.3-4.9,8.3-8.5,12-10.8c3.7-2.2,8.3-3.4,13.6-3.4c6.3,0,11.7,2.4,16.2,7.2
			c4.6,4.8,6.8,10.5,6.8,17.2v51.4h-15.5v-47c0-4.6-1.2-8.4-3.5-11.2c-2.4-2.8-5.5-4.2-9.3-4.2c-5.6,0-10.4,2.1-14.3,6.3
			c-4,4.2-5.9,9.4-5.9,15.4v40.7h-15.5L829.1,313.3L829.1,313.3z"/>
		<path class="st0" d="M908.6,392.1c0-10.1,4-19,11.9-26.9c8-7.8,17.1-11.8,27.4-11.8c10.6,0,19.9,3.9,27.8,11.6
			c7.9,7.7,11.9,16.7,11.9,27c0,10.4-3.9,19.5-11.7,27.4s-16.8,11.8-26.9,11.8c-10.9,0-20.4-3.9-28.4-11.7
			C912.6,411.8,908.6,402.6,908.6,392.1z M972.6,392.1c0-6.3-2.4-11.7-7.1-16.3c-4.8-4.6-10.4-6.9-17-6.9c-6.7,0-12.5,2.3-17.4,7
			s-7.3,10.3-7.3,16.8c0,6.2,2.5,11.6,7.4,16.3c4.9,4.7,10.7,7,17.3,7c6.4,0,12.1-2.4,16.9-7.2C970.1,404,972.6,398.5,972.6,392.1z"
			/>
		<path class="st0" d="M1001.3,429.3v-73.7h15.2v12.2c4.5-4.9,8.5-8.6,12.2-10.9c3.6-2.3,7.7-3.4,12.2-3.4c6.7,0,12.4,2.2,17.1,6.6
			s7.1,9.7,7.1,15.9v53.3h-15.5v-48.7c0-4-1.3-7.3-3.9-9.9s-5.9-3.9-9.9-3.9c-5.2,0-9.7,2.2-13.4,6.6c-3.8,4.4-5.6,9.7-5.6,15.9
			v40.1h-15.5V429.3z"/>
	</g>
	<path class="st0" d="M589.6,303.5c6.4-5.4,14.5-10.1,23.6-13.8c1.1-0.5,2.3-0.9,3.5-1.3l1.8-0.7l0.9-0.3l0.9-0.3l3.7-1.2
		c0.6-0.2,1.2-0.4,1.8-0.6l1.9-0.5l3.8-1c1.3-0.3,2.6-0.6,3.9-0.9l1.9-0.4c0.6-0.1,1.3-0.3,1.9-0.4l3.9-0.8
		c10.5-2,21.4-3.1,32.3-3.5c10.9-0.5,21.8-0.4,32.6,0.2c21.6,1.2,42.8,3.9,63.4,7.6l3.9,0.7l1.9,0.4l1.9,0.4l7.7,1.5
		c2.6,0.5,5.1,1.1,7.6,1.6l3.8,0.8l3.8,0.9c10.1,2.2,20,4.8,29.8,7.3l7.3,2l3.7,1l3.6,1l7.3,2.1l6.9,1.9l3.4,1l0.9,0.2l0.9,0.2
		l1.7,0.4l7,1.8c1.2,0.3,2.3,0.5,3.5,0.8l3.5,0.8c2.4,0.5,4.7,1.1,7.1,1.5l7.2,1.4c2.4,0.4,4.8,0.8,7.2,1.3c1.2,0.2,2.4,0.4,3.6,0.6
		l3.7,0.5l3.7,0.5c1.2,0.2,2.4,0.4,3.7,0.5l7.4,0.9c1.2,0.2,2.5,0.3,3.7,0.4l3.7,0.4c1.2,0.1,2.5,0.3,3.7,0.4l3.7,0.3
		c2.5,0.2,5,0.4,7.5,0.5c10,0.7,20.1,0.9,30.2,0.9c10.1-0.1,20.3-0.4,30.5-1.2c5.1-0.3,10.2-0.8,15.2-1.3c1.3-0.1,2.5-0.3,3.8-0.4
		s2.5-0.3,3.8-0.4c2.5-0.3,5.1-0.6,7.6-1c5.1-0.7,10.1-1.5,15.1-2.4s10-1.9,15-3c-4.3,2-8.9,3.7-13.5,5.3c-1.2,0.4-2.3,0.8-3.5,1.2
		l-3.6,1.1c-2.4,0.7-4.8,1.5-7.3,2.1c-9.8,2.7-19.9,5-30.3,6.8c-10.4,1.8-21,3.1-31.7,4l-4,0.3c-1.3,0.1-2.7,0.2-4,0.3
		c-2.7,0.1-5.4,0.3-8.1,0.4l-8.1,0.2h-1h-1h-2h-4.1c-2.7,0-5.4-0.1-8.2-0.1l-4.1-0.1c-1.4,0-2.7-0.1-4.1-0.2l-4.1-0.2
		c-1.4-0.1-2.7-0.1-4.1-0.2l-8.1-0.6c-1.4-0.1-2.7-0.3-4-0.4l-4-0.4l-4-0.4c-1.3-0.2-2.7-0.4-4-0.5c-2.7-0.4-5.3-0.7-8-1.1l-7.9-1.3
		l-2-0.3l-1-0.2l-1-0.2l-3.9-0.8l-3.9-0.8c-1.3-0.3-2.6-0.5-3.9-0.8l-7.7-1.8l-1.9-0.4l-1-0.2l-0.9-0.2l-3.8-1l-7.5-2l-7.1-2l-3.5-1
		l-3.6-1l-7.1-1.9l-7.1-1.9l-3.6-0.9l-3.6-0.9l-7.2-1.8l-7.2-1.7l-3.6-0.9l-3.6-0.8l-3.6-0.8c-1.2-0.3-2.4-0.6-3.6-0.8l-7.2-1.6
		c-1.2-0.3-2.4-0.5-3.6-0.8l-3.6-0.8l-3.6-0.8c-1.2-0.3-2.4-0.5-3.6-0.7l-3.6-0.7c-1.2-0.2-2.4-0.5-3.7-0.7l-7.3-1.4
		c-2.4-0.4-4.9-0.8-7.4-1.3c-9.8-1.6-19.7-3.1-29.6-4.2c-9.9-1.1-19.9-1.9-29.9-2.3c-10-0.3-20-0.2-29.9,0.6
		c-9.9,0.8-19.7,2.3-29.2,4.6C607.1,296.2,598,299.4,589.6,303.5z"/>
</g>
</svg>
